<svg width="20" height="20" viewBox="0 0 20 20" fill="none" xmlns="http://www.w3.org/2000/svg">
<path d="M10 0C4.47715 0 0 4.47715 0 10C0 15.5228 4.47715 20 10 20C15.5228 20 20 15.5228 20 10C20 4.47715 15.5228 0 10 0Z" fill="black"/>
<path d="M10.5192 13V7.18182H11.5732V9.85511H11.6442L13.9141 7.18182H15.201L12.951 9.79261L15.2209 13H13.9538L12.218 10.5057L11.5732 11.267V13H10.5192Z" fill="white"/>
<path d="M9.55398 9.14489H8.49148C8.46117 8.97064 8.4053 8.81629 8.32386 8.68182C8.24242 8.54545 8.1411 8.42992 8.01989 8.33523C7.89867 8.24053 7.76042 8.16951 7.60511 8.12216C7.4517 8.07292 7.28599 8.0483 7.10795 8.0483C6.79167 8.0483 6.51136 8.12784 6.26705 8.28693C6.02273 8.44413 5.83144 8.67519 5.69318 8.98011C5.55492 9.28314 5.4858 9.65341 5.4858 10.0909C5.4858 10.536 5.55492 10.911 5.69318 11.2159C5.83333 11.5189 6.02462 11.7481 6.26705 11.9034C6.51136 12.0568 6.79072 12.1335 7.10511 12.1335C7.27936 12.1335 7.44223 12.1108 7.59375 12.0653C7.74716 12.018 7.88447 11.9489 8.00568 11.858C8.12879 11.767 8.23201 11.6553 8.31534 11.5227C8.40057 11.3902 8.45928 11.2386 8.49148 11.0682L9.55398 11.0739C9.51421 11.3504 9.42803 11.6098 9.29545 11.8523C9.16477 12.0947 8.99337 12.3087 8.78125 12.4943C8.56913 12.678 8.32102 12.822 8.03693 12.9261C7.75284 13.0284 7.4375 13.0795 7.09091 13.0795C6.57955 13.0795 6.12311 12.9612 5.72159 12.7244C5.32008 12.4877 5.00379 12.1458 4.77273 11.6989C4.54167 11.2519 4.42614 10.7159 4.42614 10.0909C4.42614 9.46402 4.54261 8.92803 4.77557 8.48295C5.00852 8.03598 5.32576 7.69413 5.72727 7.45739C6.12879 7.22064 6.58333 7.10227 7.09091 7.10227C7.41477 7.10227 7.71591 7.14773 7.99432 7.23864C8.27273 7.32955 8.52083 7.46307 8.73864 7.6392C8.95644 7.81345 9.13542 8.02746 9.27557 8.28125C9.41761 8.53314 9.51042 8.82102 9.55398 9.14489Z" fill="white"/>
</svg>
